# xmcd
#
# Track frame offsets: 
#        150
#        13924
#        28310
#        40839
#        52890
#        64363
#        77147
#        89594
#        100152
#        112709
#        124710
#        138986
#        149026
#        160868
#        174112
#        187330
#        198070
#        211619
#        225768
#        238605
#        251603
#        262604
#        279690
#        292089
#        303621
#
# Disc length: 4201 seconds
#
# Revision: 1
# Processed by: cddbd v1.5.2PL0 Copyright (c) Steve Scherf et al.
# Submitted via: ExactAudioCopyFreeDBPlugin 1.0
#
DISCID=5f106719
DTITLE=Various Artist - Just Wailing [CD1]
DYEAR=2013
DGENRE=Blues
TTITLE0=Little Walter - Boogie
TTITLE1=Baby Boy Warren (feat. Sonny Boy Williamson) - Chicken
TTITLE2=Louis Myers - Just Whaling
TTITLE3=Billy Boy Arnold - I Wish You Would
TTITLE4=Sammy Myers - My Love Is Here To Stay
TTITLE5=Slim Harpo - I Got Love If You Want It
TTITLE6=Jimmy Reed - Jimmy's Boogie
TTITLE7=Snooky Pryor and Moody Jones - Snooky and Moody's Boogie
TTITLE8=Pee Wee Hughes - Country Boy Blues
TTITLE9=Walter Horton - Little Walter's Boogie
TTITLE10=Howlin' Wolf - Worried All The Time
TTITLE11=Papa Lightfoot - Wine, Women, Whiskey
TTITLE12=Champion Jack Dupree (feat. George Smith) - Sharp Harp
TTITLE13=Joe Hill Louis - She May Be Yours
TTITLE14=Junior Wells - Junior's Wail
TTITLE15=Jerry McCain - Thats What They Want
TTITLE16=Jimmy Deberry and Walter Horton - Easy
TTITLE17=Little Walter - Blues With A Feeling
TTITLE18=Doctor Ross - Come Back Baby
TTITLE19=Sunnyland Slim (feat. Snooky Pryor) - Be My Baby
TTITLE20=Pete ''Guitar'' Lewis - Going Crazy
TTITLE21=Walter Mitchell - Pet Milk Blues
TTITLE22=Lazy Lester - Sugar Coated Love
TTITLE23=Hot Shot Love - Harmonica Jam
TTITLE24=Sonny Terry - Ride And Roll
EXTD=YEAR: 2013
EXTT0=
EXTT1=
EXTT2=
EXTT3=
EXTT4=
EXTT5=
EXTT6=
EXTT7=
EXTT8=
EXTT9=
EXTT10=
EXTT11=
EXTT12=
EXTT13=
EXTT14=
EXTT15=
EXTT16=
EXTT17=
EXTT18=
EXTT19=
EXTT20=
EXTT21=
EXTT22=
EXTT23=
EXTT24=
PLAYORDER=
